<?xml version="1.0" encoding="utf-8"?>
<!-- Generator: Adobe Illustrator 25.2.1, SVG Export Plug-In . SVG Version: 6.00 Build 0)  -->
<svg version="1.1" id="Layer_1" xmlns="http://www.w3.org/2000/svg" xmlns:xlink="http://www.w3.org/1999/xlink" x="0px" y="0px"
	 viewBox="0 0 24 24" style="enable-background:new 0 0 24 24;" xml:space="preserve">
<style type="text/css">
	.st0{fill-rule:evenodd;clip-rule:evenodd;}
</style>
<path class="st0" d="M11.4,2.5V0C18.3,0,24,5.7,24,12.6h-2.5C21.5,7.1,16.9,2.5,11.4,2.5z M18.9,12.6h-2.5c0-2.8-2.3-5.1-5.1-5.1
	V5.1C15.5,5.1,18.9,8.5,18.9,12.6z M11.4,10.1v2.5h2.5C13.9,11.2,12.8,10.1,11.4,10.1z M15.2,16.4h5.1c0.7,0,1.3,0.6,1.3,1.3v5.1
	c0,0.7-0.6,1.3-1.3,1.3h-6.3C6.2,24,0,17.8,0,10.1V3.8c0-0.7,0.6-1.3,1.3-1.3h5.1c0.7,0,1.3,0.6,1.3,1.3v5.1c0,0.7-0.6,1.3-1.3,1.3
	H5.1c0.1,5,3.8,8.8,8.8,8.8v-1.3C13.9,17,14.5,16.4,15.2,16.4z"/>
</svg>
