<?xml version="1.0" encoding="utf-8"?>
<!-- Generator: Adobe Illustrator 25.2.1, SVG Export Plug-In . SVG Version: 6.00 Build 0)  -->
<svg version="1.1" id="Layer_1" xmlns="http://www.w3.org/2000/svg" xmlns:xlink="http://www.w3.org/1999/xlink" x="0px" y="0px"
	 viewBox="0 0 24 24" style="enable-background:new 0 0 24 24;" xml:space="preserve">
<style type="text/css">
	.st0{fill-rule:evenodd;clip-rule:evenodd;}
</style>
<path class="st0" d="M3.6,0C1.6,0,0,1.6,0,3.6v16.8c0,2,1.6,3.6,3.6,3.6h16.8c2,0,3.6-1.6,3.6-3.6V3.6c0-2-1.6-3.6-3.6-3.6H3.6z
	 M8.2,6.9v9.9H5.7V6.9H8.2z M13.5,6.9c3.5,0,5.3,2,5.3,5s-1.8,5-5.2,5H10V6.9H13.5z M13.4,14.9c1.8,0,2.9-0.9,2.9-3.1
	c0-2.1-1.2-3.1-2.9-3.1h-0.9v6.1H13.4z"/>
</svg>
