<?xml version="1.0" encoding="UTF-8" standalone="no"?>
<!-- Generator: Adobe Illustrator 25.2.1, SVG Export Plug-In . SVG Version: 6.00 Build 0)  -->
<svg version="1.1" id="Layer_1" xmlns="http://www.w3.org/2000/svg" xmlns:xlink="http://www.w3.org/1999/xlink" x="0px" y="0px"
     viewBox="0 0 24 24" style="enable-background:new 0 0 24 24;" xml:space="preserve">
<path d="M 4.8007812 0 C 3.5007813 0 2.4003906 1.1003906 2.4003906 2.4003906 L 2.4003906 21.599609 C 2.4003906 22.899609 3.5007813 24 4.8007812 24 L 19.199219 24 C 20.499219 24 21.599609 22.899609 21.599609 21.599609 L 21.599609 7.1992188 L 14.400391 0 L 4.8007812 0 z M 13.199219 1.8007812 L 19.800781 8.4003906 L 13.199219 8.4003906 L 13.199219 1.8007812 z M 7.1992188 12 L 16.800781 12 L 16.800781 14.400391 L 7.1992188 14.400391 L 7.1992188 12 z M 7.1992188 16.800781 L 16.800781 16.800781 L 16.800781 19.199219 L 7.1992188 19.199219 L 7.1992188 16.800781 z"/>
</svg>
