<?xml version="1.0" encoding="utf-8"?>
<!-- Generator: Adobe Illustrator 25.2.1, SVG Export Plug-In . SVG Version: 6.00 Build 0)  -->
<svg version="1.1" id="Layer_1" xmlns="http://www.w3.org/2000/svg" xmlns:xlink="http://www.w3.org/1999/xlink" x="0px" y="0px"
	 viewBox="0 0 24 24" style="enable-background:new 0 0 24 24;" xml:space="preserve">
<path d="M20.4,4.8c-4.1,0-7.4-4.3-7.5-4.3c-0.5-0.6-1.5-0.6-1.9,0c0,0-3.3,4.3-7.5,4.3C2.9,4.8,2.4,5.3,2.4,6v8.4
	c0,4.6,8.1,9,9.1,9.5C11.6,24,11.8,24,12,24s0.4,0,0.6-0.1c0.9-0.5,9.1-4.9,9.1-9.5V6C21.6,5.3,21.1,4.8,20.4,4.8z M15.6,16.8
	L12,14.4l-3.6,2.4l1.2-3.6l-2.4-2.4h3.6L12,7.2l1.2,3.6h3.6l-2.4,2.4L15.6,16.8z"/>
</svg>
