<?xml version="1.0" encoding="utf-8"?>
<!-- Generator: Adobe Illustrator 25.2.1, SVG Export Plug-In . SVG Version: 6.00 Build 0)  -->
<svg version="1.1" id="Layer_1" xmlns="http://www.w3.org/2000/svg" xmlns:xlink="http://www.w3.org/1999/xlink" x="0px" y="0px"
	 viewBox="0 0 24 24" style="enable-background:new 0 0 24 24;" xml:space="preserve">
<style type="text/css">
	.st0{fill-rule:evenodd;clip-rule:evenodd;}
</style>
<path class="st0" d="M10.2,13.8c0.5,0.5,0.5,1.3,0,1.8c-0.5,0.5-1.3,0.5-1.8,0c-2.5-2.5-2.5-6.6,0-9.2l4.6-4.6
	c2.5-2.5,6.6-2.5,9.2,0c2.5,2.5,2.5,6.6,0,9.2L20.2,13c0-1.1-0.2-2.1-0.5-3.1l0.6-0.6c1.5-1.5,1.5-4,0-5.5c0,0,0,0,0,0
	c-1.5-1.5-4-1.5-5.5,0c0,0,0,0,0,0l-4.6,4.6C8.6,9.8,8.6,12.3,10.2,13.8C10.1,13.8,10.2,13.8,10.2,13.8z M13.8,8.3
	c0.5-0.5,1.3-0.5,1.8,0c2.5,2.5,2.5,6.6,0,9.2l-4.6,4.6c-2.5,2.5-6.6,2.5-9.2,0c-2.5-2.5-2.5-6.6,0-9.2L3.8,11
	c0,1.1,0.2,2.1,0.5,3.2l-0.6,0.6c-1.5,1.5-1.5,4,0,5.5c0,0,0,0,0,0c1.5,1.5,4,1.5,5.5,0c0,0,0,0,0,0l4.6-4.6c1.5-1.5,1.5-4,0-5.5
	c0,0,0,0,0,0C13.3,9.7,13.3,8.9,13.8,8.3C13.8,8.4,13.8,8.3,13.8,8.3z"/>
</svg>
