<?xml version="1.0" encoding="utf-8"?>
<!-- Generator: Adobe Illustrator 25.2.1, SVG Export Plug-In . SVG Version: 6.00 Build 0)  -->
<svg version="1.1" id="Layer_1" xmlns="http://www.w3.org/2000/svg" xmlns:xlink="http://www.w3.org/1999/xlink" x="0px" y="0px"
	 viewBox="0 0 22 22" style="enable-background:new 0 0 22 22;" xml:space="preserve">
<path d="M19.8,3.3h-10L8.8,0H2.2C1,0,0,1,0,2.2v14.3c0,1.2,1,2.2,2.2,2.2h7.7L11,22h8.8c1.2,0,2.2-1,2.2-2.2V5.5
	C22,4.3,21,3.3,19.8,3.3z M5.7,13.8c-2.5,0-4.5-2-4.5-4.5s2-4.5,4.5-4.5c1.1,0,2.2,0.4,3,1.2l0.1,0.1L7.4,7.4L7.4,7.3
	C7,7,6.5,6.7,5.7,6.7c-1.4,0-2.6,1.2-2.6,2.7S4.2,12,5.7,12c1.5,0,2.2-1,2.3-1.6H5.6V8.7h4.3l0,0.1C10,9,10,9.2,10,9.4
	C10,12,8.2,13.8,5.7,13.8z M11.7,10h4.4c0,0-0.4,1.4-1.7,3c-0.6-0.7-1-1.3-1.3-1.9h-1.1L11.7,10z M13.6,13.8L13,14.4L12.3,12
	C12.7,12.6,13.1,13.3,13.6,13.8z M20.9,19.8c0,0.6-0.5,1.1-1.1,1.1h-7.7l2.2-2.2l-0.9-3l1-1l3,3l0.8-0.8l-3-3c1-1.1,1.8-2.5,2.1-3.9
	h1.4V8.8h-4V7.7h-1.1v1.1h-2.2l-1.3-4.4h9.7c0.6,0,1.1,0.5,1.1,1.1L20.9,19.8L20.9,19.8z"/>
</svg>
