<?xml version="1.0" encoding="utf-8"?>
<!-- Generator: Adobe Illustrator 25.2.1, SVG Export Plug-In . SVG Version: 6.00 Build 0)  -->
<svg version="1.1" id="Layer_1" xmlns="http://www.w3.org/2000/svg" xmlns:xlink="http://www.w3.org/1999/xlink" x="0px" y="0px"
	 viewBox="0 0 24 24" style="enable-background:new 0 0 24 24;" xml:space="preserve">
<style type="text/css">
	.st0{fill-rule:evenodd;clip-rule:evenodd;}
</style>
<path class="st0" d="M0,2.4C0,1.1,1.1,0,2.4,0h19.2C22.9,0,24,1.1,24,2.4v14.4c0,1.3-1.1,2.4-2.4,2.4H10.8L6,24v-4.8H2.4
	c-1.3,0-2.4-1.1-2.4-2.4V2.4z M11.4,2.9c0.2-0.2,0.5-0.3,0.8-0.2c0.3,0.1,0.5,0.4,0.5,0.7v11.9c0,0.3-0.2,0.6-0.5,0.7
	c-0.3,0.1-0.6,0.1-0.8-0.2l-3.2-3.5H6c-0.4,0-0.7-0.3-0.7-0.7V7.1c0-0.4,0.3-0.7,0.7-0.7h2.2L11.4,2.9z M14.2,5.6V4.1
	c2.9,0,5.2,2.3,5.2,5.2c0,2.9-2.3,5.2-5.2,5.2V13c2.1,0,3.7-1.7,3.7-3.7C17.9,7.3,16.3,5.6,14.2,5.6z M16.4,9.3c0-1.2-1-2.2-2.2-2.2
	v1.5c0.4,0,0.7,0.3,0.7,0.7c0,0.4-0.3,0.7-0.7,0.7v1.5C15.4,11.6,16.4,10.6,16.4,9.3z"/>
</svg>
