<?xml version="1.0" encoding="utf-8"?>
<!-- Generator: Adobe Illustrator 25.2.1, SVG Export Plug-In . SVG Version: 6.00 Build 0)  -->
<svg version="1.1" id="vector" xmlns="http://www.w3.org/2000/svg" xmlns:xlink="http://www.w3.org/1999/xlink" x="0px" y="0px"
	 viewBox="0 0 24 24" style="enable-background:new 0 0 24 24;" xml:space="preserve">
<path id="path" d="M21.3,0H2.7C1.2,0,0,1.2,0,2.7v18.7C0,22.8,1.2,24,2.7,24h18.7c1.5,0,2.7-1.2,2.7-2.7V2.7C24,1.2,22.8,0,21.3,0z
	 M21.3,21.3H2.7v-16h18.7V21.3z M14,13.3c0,1.1-0.9,2-2,2s-2-0.9-2-2s0.9-2,2-2S14,12.2,14,13.3z M12,8c-3.6,0-6.7,2.2-8,5.3
	c1.3,3.1,4.4,5.3,8,5.3s6.7-2.2,8-5.3C18.7,10.2,15.6,8,12,8z M12,16.7c-1.8,0-3.3-1.5-3.3-3.3S10.2,10,12,10s3.3,1.5,3.3,3.3
	S13.8,16.7,12,16.7z"/>
</svg>
